<svg width="154" height="61" viewBox="0 0 154 61" fill="none" xmlns="http://www.w3.org/2000/svg">
<path d="M14.9567 47.0713C9.85534 34.6282 12.7227 25.9079 16.026 20.7816C19.6076 15.2255 24.4702 12.5783 24.52 12.5513L24.7858 12.979C24.738 13.0039 19.9771 15.5992 16.4683 21.0557C13.2355 26.0844 10.4325 34.6511 15.453 46.8948L14.9567 47.0713Z" fill="white"/>
<path d="M23.2118 50.6506C17.637 37.4954 20.3217 26.9791 23.5565 20.4741C27.0612 13.4252 31.9571 9.43252 32.0069 9.39307L32.3557 9.76472C32.3079 9.80417 27.4848 13.7408 24.0299 20.7004C20.8449 27.114 18.2059 37.485 23.708 50.47L23.2139 50.6506H23.2118Z" fill="white"/>
<path d="M32.0792 49.7909C23.8343 27.3008 32.0626 9.8082 32.1456 9.63379L32.6232 9.83311C32.5401 10.0054 24.397 27.334 32.5733 49.6352L32.0792 49.7909Z" fill="white"/>
<path d="M27.4326 19.1122C24.0483 19.1122 21.426 18.4395 19.603 17.1003C17.5246 15.5722 17.3212 13.743 17.3149 13.6662L18.0209 13.606C18.0209 13.6226 18.216 15.2524 20.0639 16.5999C22.4018 18.3046 26.3903 18.8444 31.5997 18.1592L31.6993 18.8112C30.165 19.0126 28.7427 19.1143 27.4326 19.1143V19.1122Z" fill="white"/>
<path d="M26.8017 27.6431C14.5454 27.6431 11.3168 22.2822 11.1694 22.0247L11.7944 21.7153C11.8338 21.7818 15.8743 28.403 31.93 26.6984L32.011 27.3524C30.1154 27.5538 28.3838 27.6431 26.8017 27.6431Z" fill="white"/>
<path d="M26.0144 36.2163C13.8848 36.2163 10.1766 30.9322 9.48315 29.7113L9.46031 29.6719L9.6451 29.5743L9.42917 29.6407C9.33158 29.3272 9.55374 29.2172 9.62433 29.1923C9.73645 29.1507 9.94823 29.1238 10.1081 29.4061C10.8846 30.7723 15.6372 37.4662 33.0405 35.037L33.1464 35.6868C30.495 36.0564 28.126 36.2163 26.0144 36.2163Z" fill="white"/>
<path d="M26.7124 43.5268C19.5887 43.5268 14.942 40.9439 12.4547 38.9984L12.2844 39.1043L12.1432 38.9071C11.8733 38.5354 11.7384 38.3465 11.9813 38.1492C12.2221 37.952 12.4297 38.1222 12.6706 38.3174C15.7165 40.784 22.5225 44.5524 33.8755 42.063L34.0354 42.6921C31.3529 43.2797 28.9153 43.5268 26.7145 43.5268H26.7124Z" fill="white"/>
<path d="M32.7337 9.55892L24.2148 16.9982L24.1691 13.2277C16.8066 15.6424 11.3024 21.4954 10.5135 28.7789C9.74524 35.8549 13.5365 42.6754 19.8982 46.4646C9.8366 42.9785 3.24652 33.8097 4.30334 24.0554C5.34771 14.4132 13.6362 6.96567 24.0736 5.29635L24.0341 2.06982L32.7337 9.561V9.55892Z" fill="white"/>
<path d="M34.2534 49.8099L23.4962 43.3776L24.6154 47.5737C16.5594 46.4733 9.28419 41.1539 6.25076 33.235C3.30246 25.5404 5.53652 17.2457 10.6857 11.6709C1.7681 17.7025 -2.52147 29.2091 1.53971 39.8147C5.55521 50.2978 16.086 56.7903 26.9678 56.4041L27.9249 59.996L34.2513 49.8099H34.2534Z" fill="white"/>
<path d="M49.7238 6.65676C49.213 6.2332 48.6898 5.92176 48.1541 5.72452C47.6185 5.52727 47.0433 5.42969 46.4308 5.42969C45.1747 5.42969 44.1739 5.7785 43.4286 6.4782C42.6832 7.1779 42.3094 8.11638 42.3094 9.29362C42.3094 10.4709 42.6562 11.3616 43.3476 12.0384C44.039 12.7153 44.9837 13.0537 46.1817 13.0537C46.8627 13.0537 47.496 12.9479 48.0815 12.7361C48.667 12.5243 49.2089 12.2066 49.7072 11.781L49.6906 14.1853C49.1549 14.4801 48.5922 14.7002 48.0047 14.8435C47.4171 14.9888 46.7983 15.0615 46.1485 15.0615C44.2694 15.0615 42.7289 14.5175 41.5246 13.4337C40.3204 12.3478 39.7183 10.9692 39.7183 9.2957C39.7183 7.62223 40.3225 6.25189 41.5288 5.17015C42.7372 4.08634 44.2923 3.54443 46.1983 3.54443C46.8378 3.54443 47.4544 3.60672 48.0503 3.7313C48.6462 3.85587 49.2338 4.04897 49.8131 4.3085L49.7238 6.66091V6.65676Z" fill="white"/>
<path d="M64.7907 9.30815C64.7907 10.093 64.6329 10.8342 64.3194 11.5318C64.0058 12.2315 63.5532 12.844 62.9636 13.3735C62.3511 13.9175 61.6617 14.3348 60.8956 14.6234C60.1274 14.912 59.3342 15.0573 58.512 15.0573C57.7937 15.0573 57.0877 14.9431 56.3984 14.7168C55.7091 14.4905 55.0779 14.1645 54.5028 13.7389C53.7615 13.1908 53.1947 12.5326 52.8002 11.7685C52.4057 11.0045 52.2085 10.1843 52.2085 9.304C52.2085 8.51502 52.3642 7.77587 52.6757 7.08447C52.9871 6.39307 53.4439 5.77849 54.0439 5.23867C54.6336 4.70506 55.3187 4.28981 56.1015 3.99498C56.8822 3.70015 57.6857 3.55273 58.512 3.55273C59.3384 3.55273 60.1315 3.70015 60.906 3.99498C61.6804 4.28981 62.3677 4.70299 62.9615 5.23867C63.5574 5.77849 64.01 6.39515 64.3214 7.08862C64.6329 7.78209 64.7886 8.52125 64.7886 9.30607L64.7907 9.30815ZM58.512 12.9707C59.5792 12.9707 60.4617 12.6219 61.1572 11.9263C61.8528 11.2308 62.1995 10.3567 62.1995 9.30815C62.1995 8.25964 61.8486 7.39591 61.1448 6.6879C60.4409 5.97989 59.5647 5.62485 58.512 5.62485C57.4594 5.62485 56.5583 5.97782 55.8565 6.68375C55.1526 7.38968 54.8018 8.26586 54.8018 9.30815C54.8018 10.3504 55.1485 11.2412 55.8399 11.9326C56.5313 12.624 57.422 12.9707 58.512 12.9707Z" fill="white"/>
<path d="M66.5537 14.7664L68.3497 3.80371H70.9907L73.2601 10.2588C73.3078 10.3938 73.3597 10.591 73.4179 10.8506C73.4739 11.1101 73.5258 11.407 73.5757 11.7413C73.6193 11.4029 73.667 11.0976 73.721 10.8319C73.775 10.564 73.8248 10.3689 73.8746 10.2443L76.1855 3.80371H78.785L80.5872 14.7664H78.1974L77.3358 8.15349C77.2714 7.6635 77.2278 7.29392 77.207 7.04477C77.1863 6.79561 77.1738 6.56307 77.1738 6.34922C77.1738 6.23502 77.1738 6.14782 77.178 6.09176C77.1801 6.03362 77.1842 5.98379 77.1904 5.93811C77.1095 6.3679 77.0326 6.73748 76.962 7.05099C76.8894 7.36244 76.8229 7.59913 76.7648 7.759L74.2691 14.7685H72.8531L70.399 7.759C70.3782 7.69464 70.3304 7.514 70.2578 7.21917C70.1851 6.92434 70.0854 6.49455 69.9567 5.93189V6.25371C69.9567 6.76239 69.909 7.38735 69.8114 8.1265L69.8031 8.15557L68.9497 14.7685H66.5599L66.5537 14.7664Z" fill="white"/>
<path d="M82.9253 14.7664V3.80371H85.4438V14.7664H82.9253Z" fill="white"/>
<path d="M88.0348 13.3734L89.4363 11.8971C89.6128 12.302 89.8972 12.6197 90.2896 12.8522C90.682 13.0848 91.1222 13.201 91.6101 13.201C92.1998 13.201 92.6669 13.0723 93.0116 12.8107C93.3542 12.5512 93.5265 12.2024 93.5265 11.7622C93.5265 11.2431 92.9555 10.7261 91.8115 10.2112C91.4419 10.0472 91.1492 9.91223 90.9333 9.80634C89.9034 9.30804 89.1892 8.82011 88.7926 8.34257C88.3961 7.86503 88.1967 7.29821 88.1967 6.63796C88.1967 5.73478 88.5808 4.99147 89.3511 4.41012C90.1214 3.82876 91.1201 3.53809 92.3493 3.53809C93.0635 3.53809 93.6781 3.65436 94.1972 3.8869C94.7141 4.11944 95.173 4.48279 95.5696 4.97694L94.0809 6.3016C93.9044 5.98185 93.6698 5.74308 93.377 5.58736C93.0843 5.42957 92.7313 5.35067 92.3181 5.35067C91.8198 5.35067 91.417 5.46694 91.1097 5.69948C90.8045 5.93202 90.6509 6.23308 90.6509 6.60266C90.6509 7.18194 91.2572 7.71139 92.4697 8.191C92.7105 8.28651 92.8953 8.36126 93.0241 8.41524C94.0227 8.8388 94.7619 9.31842 95.2415 9.85202C95.7211 10.3856 95.962 10.996 95.962 11.6791C95.962 12.7069 95.5841 13.527 94.8304 14.1395C94.0767 14.752 93.0635 15.0572 91.7928 15.0572C90.8917 15.0572 90.1194 14.9119 89.4736 14.6233C88.83 14.3347 88.3504 13.9174 88.0327 13.3734H88.0348Z" fill="white"/>
<path d="M98.7319 14.7664V3.80371H101.25V14.7664H98.7319Z" fill="white"/>
<path d="M116.665 9.30791C116.665 10.0927 116.507 10.834 116.193 11.5316C115.88 12.2313 115.427 12.8438 114.838 13.3732C114.225 13.9172 113.536 14.3346 112.77 14.6232C112.001 14.9118 111.208 15.0571 110.386 15.0571C109.668 15.0571 108.962 14.9429 108.272 14.7166C107.583 14.4903 106.952 14.1643 106.377 13.7387C105.636 13.1905 105.069 12.5324 104.674 11.7683C104.28 11.0042 104.083 10.1841 104.083 9.30376C104.083 8.51478 104.238 7.77563 104.55 7.08423C104.861 6.39283 105.318 5.77826 105.918 5.23843C106.508 4.70482 107.193 4.28957 107.976 3.99474C108.756 3.69991 109.56 3.5525 110.386 3.5525C111.212 3.5525 112.006 3.69991 112.78 3.99474C113.557 4.28957 114.242 4.70275 114.838 5.23843C115.433 5.77826 115.886 6.39491 116.198 7.08838C116.509 7.78185 116.665 8.52101 116.665 9.30584V9.30791ZM110.386 12.9704C111.453 12.9704 112.336 12.6216 113.031 11.9261C113.727 11.2305 114.074 10.3564 114.074 9.30791C114.074 8.2594 113.723 7.39567 113.019 6.68766C112.315 5.97965 111.439 5.62461 110.386 5.62461C109.333 5.62461 108.432 5.97758 107.731 6.68351C107.027 7.38944 106.676 8.26562 106.676 9.30791C106.676 10.3502 107.023 11.2409 107.714 11.9323C108.405 12.6237 109.296 12.9704 110.386 12.9704ZM112.745 0L110.226 2.76351H109.084L110.671 0H112.747H112.745Z" fill="white"/>
<path d="M119.449 14.7664V3.80371H122.065L127.28 10.1841C127.43 10.3647 127.596 10.618 127.775 10.944C127.955 11.272 128.14 11.6562 128.333 12.1005C128.275 11.7766 128.231 11.4548 128.204 11.135C128.177 10.8153 128.165 10.4166 128.165 9.93701V3.80371H130.571V14.7664H128.101L122.74 8.26561C122.59 8.08498 122.426 7.83167 122.25 7.5057C122.073 7.17972 121.884 6.78731 121.687 6.33468C121.745 6.6482 121.789 6.96794 121.816 7.28977C121.843 7.61159 121.855 8.01854 121.855 8.50646V14.7664H119.449Z" fill="white"/>
<path d="M40.2349 33.1702V22.2075H42.851L48.0665 28.5879C48.216 28.7685 48.3821 29.0218 48.5607 29.3478C48.7413 29.6759 48.9261 30.06 49.1192 30.5043C49.0611 30.1804 49.0175 29.8586 48.9905 29.5388C48.9635 29.2191 48.951 28.8204 48.951 28.3408V22.2075H51.3574V33.1702H48.8867L43.5258 26.6694C43.3763 26.4888 43.2122 26.2355 43.0358 25.9095C42.8593 25.5835 42.6703 25.1911 42.4731 24.7385C42.5312 25.052 42.5748 25.3718 42.6018 25.6936C42.6288 26.0154 42.6413 26.4203 42.6413 26.9103V33.1702H40.2349Z" fill="white"/>
<path d="M52.1523 33.1702L56.635 22.2075H59.5169L64.0639 33.1702H61.1986L60.2415 30.8406H55.6778L54.8577 33.1702H52.1523ZM59.6539 28.999L58.3334 25.4569C58.296 25.3531 58.2483 25.1724 58.1881 24.9171C58.1299 24.6617 58.0676 24.3502 58.0033 23.9807C57.9327 24.3357 57.8662 24.6534 57.8019 24.9357C57.7375 25.2181 57.6897 25.407 57.6565 25.5005L56.3838 28.9969H59.6518L59.6539 28.999Z" fill="white"/>
<path d="M74.0763 25.0606C73.5656 24.637 73.0424 24.3256 72.5067 24.1283C71.971 23.9311 71.3959 23.8335 70.7834 23.8335C69.5272 23.8335 68.5265 24.1823 67.7811 24.882C67.0357 25.5817 66.662 26.5202 66.662 27.6974C66.662 28.8747 67.0087 29.7654 67.7001 30.4423C68.3915 31.1191 69.3362 31.4576 70.5342 31.4576C71.2152 31.4576 71.8485 31.3517 72.434 31.1399C73.0195 30.9281 73.5614 30.6104 74.0597 30.1848L74.0431 32.5891C73.5074 32.8839 72.9448 33.104 72.3572 33.2473C71.7696 33.3926 71.1509 33.4653 70.501 33.4653C68.622 33.4653 67.0814 32.9234 65.8772 31.8375C64.6729 30.7516 64.0708 29.373 64.0708 27.6995C64.0708 26.026 64.675 24.6557 65.8813 23.574C67.0897 22.4901 68.6448 21.9482 70.5508 21.9482C71.1903 21.9482 71.807 22.0105 72.4029 22.1351C72.9988 22.2597 73.5863 22.4528 74.1656 22.7123L74.0763 25.0647V25.0606Z" fill="white"/>
<path d="M76.0381 33.1702V22.2075H78.5566V33.1702H76.0381Z" fill="white"/>
<path d="M92.883 27.712C92.883 28.4968 92.7252 29.238 92.4117 29.9356C92.0981 30.6353 91.6455 31.2478 91.0559 31.7773C90.4434 32.3213 89.754 32.7386 88.9879 33.0272C88.2197 33.3158 87.4265 33.4611 86.6043 33.4611C85.8859 33.4611 85.18 33.3469 84.4907 33.1206C83.8014 32.8943 83.1702 32.5683 82.5951 32.1427C81.8538 31.5946 81.287 30.9364 80.8925 30.1723C80.498 29.4083 80.3008 28.5881 80.3008 27.7078C80.3008 26.9188 80.4565 26.1797 80.7679 25.4883C81.0794 24.7969 81.5362 24.1823 82.1362 23.6425C82.7259 23.1089 83.411 22.6936 84.1938 22.3988C84.9745 22.104 85.778 21.9565 86.6043 21.9565C87.4307 21.9565 88.2238 22.104 88.9983 22.3988C89.7748 22.6936 90.46 23.1068 91.0559 23.6425C91.6517 24.1823 92.1044 24.799 92.4158 25.4924C92.7272 26.1859 92.883 26.9251 92.883 27.7099V27.712ZM86.6064 31.3745C87.6736 31.3745 88.556 31.0257 89.2516 30.3301C89.9471 29.6346 90.2939 28.7605 90.2939 27.712C90.2939 26.6634 89.943 25.7997 89.2391 25.0917C88.5353 24.3837 87.6591 24.0287 86.6064 24.0287C85.5537 24.0287 84.6526 24.3816 83.9509 25.0876C83.247 25.7935 82.8961 26.6697 82.8961 27.712C82.8961 28.7542 83.2429 29.645 83.9343 30.3364C84.6256 31.0278 85.5164 31.3745 86.6064 31.3745Z" fill="white"/>
<path d="M94.5791 33.1702V22.2075H97.1952L102.411 28.5879C102.56 28.7685 102.726 29.0218 102.905 29.3478C103.086 29.6759 103.27 30.06 103.463 30.5043C103.405 30.1804 103.362 29.8586 103.335 29.5388C103.308 29.2191 103.295 28.8204 103.295 28.3408V22.2075H105.702V33.1702H103.231L97.87 26.6694C97.7205 26.4888 97.5565 26.2355 97.38 25.9095C97.2035 25.5835 97.0146 25.1911 96.8173 24.7385C96.8755 25.052 96.9191 25.3718 96.9461 25.6936C96.973 26.0154 96.9855 26.4203 96.9855 26.9103V33.1702H94.5791Z" fill="white"/>
<path d="M106.499 33.1702L110.982 22.2075H113.864L118.411 33.1702H115.545L114.588 30.8406H110.025L109.204 33.1702H106.499ZM114.001 28.999L112.68 25.4569C112.643 25.3531 112.595 25.1724 112.535 24.9171C112.477 24.6617 112.414 24.3502 112.35 23.9807C112.279 24.3357 112.213 24.6534 112.149 24.9357C112.084 25.2181 112.036 25.407 112.003 25.5005L110.73 28.9969H113.999L114.001 28.999Z" fill="white"/>
<path d="M119.222 33.1702V22.2075H121.741V31.1791H125.765V33.1702H119.22H119.222Z" fill="white"/>
<path d="M131.558 33.1702V22.2075H134.77C136.036 22.2075 137.035 22.2906 137.764 22.4546C138.492 22.6186 139.134 22.8948 139.688 23.2789C140.403 23.773 140.942 24.3959 141.31 25.1475C141.677 25.8991 141.862 26.7545 141.862 27.7117C141.862 28.6689 141.675 29.5471 141.299 30.2987C140.924 31.0503 140.373 31.6712 139.649 32.1591C139.113 32.5183 138.515 32.7778 137.857 32.9335C137.199 33.0913 136.238 33.1702 134.971 33.1702H131.558ZM134.078 31.1936H135.48C136.8 31.1936 137.762 30.9133 138.366 30.3548C138.97 29.7963 139.271 28.9097 139.271 27.6972C139.271 26.4846 138.97 25.6043 138.366 25.0416C137.762 24.479 136.8 24.1987 135.48 24.1987H134.078V31.1936Z" fill="white"/>
<path d="M143.542 33.1702V22.2075H150.481V24.1841H146.063V26.439H150.481V28.4301H146.063V31.1791H150.481V33.1702H143.542Z" fill="white"/>
<path d="M40.2349 51.5745V40.6118H47.1738V42.5884H42.7555V44.8433H47.1738V46.8344H42.7555V49.5834H47.1738V51.5745H40.2349Z" fill="white"/>
<path d="M50.3027 51.5745V40.6118H52.9188L58.1344 46.9922C58.2839 47.1728 58.45 47.4261 58.6286 47.7521C58.8092 48.0802 58.994 48.4643 59.1871 48.9086C59.1289 48.5847 59.0853 48.2629 59.0584 47.9431C59.0314 47.6234 59.0189 47.2247 59.0189 46.7451V40.6118H61.4253V51.5745H58.9545L53.5936 45.0737C53.4441 44.8931 53.2801 44.6398 53.1036 44.3138C52.9271 43.9878 52.7382 43.5954 52.541 43.1428C52.5991 43.4563 52.6427 43.7761 52.6697 44.0979C52.6967 44.4197 52.7091 44.8266 52.7091 45.3146V51.5745H50.3027Z" fill="white"/>
<path d="M64.71 51.5745V40.6118H71.6489V42.5884H67.2306V44.8433H71.6489V46.8344H67.2306V49.5834H71.6489V51.5745H64.71Z" fill="white"/>
<path d="M83.303 51.5745H80.3962L77.2963 46.4524V51.5745H74.7778V40.6118H78.3843C79.8169 40.6118 80.8904 40.8693 81.6046 41.3863C82.3188 41.9033 82.676 42.6798 82.676 43.72C82.676 44.4737 82.431 45.1173 81.943 45.653C81.4551 46.1866 80.8239 46.5001 80.0516 46.5894L83.303 51.5766V51.5745ZM77.2984 45.2834H77.6763C78.6958 45.2834 79.3685 45.1796 79.6965 44.972C80.0246 44.7644 80.1865 44.4052 80.1865 43.8902C80.1865 43.3753 80.01 42.9684 79.6591 42.74C79.3083 42.5137 78.6459 42.3995 77.6742 42.3995H77.2963V45.2834H77.2984Z" fill="white"/>
<path d="M91.28 45.7942H96.6492C96.6596 45.8586 96.6658 45.9291 96.67 46.0039C96.6721 46.0786 96.6742 46.1928 96.6742 46.3486C96.6742 47.9909 96.1696 49.3218 95.1606 50.3391C94.1515 51.3586 92.8476 51.8673 91.2489 51.8673C89.4197 51.8673 87.9102 51.3233 86.7247 50.2395C85.5391 49.1536 84.9453 47.7749 84.9453 46.1015C84.9453 44.428 85.5412 43.0743 86.733 41.9905C87.9248 40.9067 89.4301 40.3647 91.2489 40.3647C92.2102 40.3647 93.0884 40.5516 93.8899 40.9274C94.6892 41.3011 95.4035 41.8617 96.0305 42.605L94.3321 43.774C93.9086 43.284 93.4622 42.931 92.995 42.7151C92.5278 42.4971 91.988 42.3891 91.3776 42.3891C90.2128 42.3891 89.2826 42.7255 88.585 43.4002C87.8874 44.075 87.5386 44.9761 87.5386 46.1036C87.5386 47.231 87.8895 48.1072 88.5892 48.7882C89.2889 49.4692 90.2024 49.8097 91.3298 49.8097C92.1562 49.8097 92.8268 49.6291 93.3418 49.2678C93.8567 48.9065 94.1141 48.4331 94.1141 47.8476V47.7272H91.28V45.7942Z" fill="white"/>
<path d="M103.007 36.8081L100.488 39.5716H99.3462L100.932 36.8081H103.009H103.007ZM99.3753 51.5745V40.6118H101.894V51.5745H99.3753Z" fill="white"/>
<path d="M103.843 51.5745L108.326 40.6118H111.208L115.755 51.5745H112.89L111.932 49.2449H107.369L106.549 51.5745H103.843ZM111.345 47.4033L110.024 43.8612C109.987 43.7574 109.939 43.5767 109.879 43.3213C109.821 43.066 109.759 42.7545 109.694 42.385C109.624 42.74 109.557 43.0577 109.493 43.34C109.428 43.6224 109.381 43.8113 109.347 43.9048L108.075 47.4012H111.343L111.345 47.4033Z" fill="white"/>
<path d="M42.0146 58.665H43.7317C43.7358 58.6857 43.7379 58.7086 43.7379 58.7314C43.7379 58.7563 43.7379 58.7916 43.7379 58.8414C43.7379 59.3667 43.576 59.7924 43.2541 60.1184C42.9323 60.4443 42.515 60.6063 42.0042 60.6063C41.4187 60.6063 40.937 60.4319 40.5591 60.0851C40.1792 59.7384 39.9902 59.2982 39.9902 58.7625C39.9902 58.2269 40.1813 57.795 40.5612 57.4483C40.9412 57.1015 41.4229 56.9292 42.0042 56.9292C42.3115 56.9292 42.5918 56.9894 42.8472 57.1098C43.1026 57.2303 43.3309 57.4088 43.5323 57.6455L42.9904 58.0192C42.8555 57.8635 42.7122 57.7493 42.5627 57.6808C42.4132 57.6123 42.2409 57.577 42.0457 57.577C41.6741 57.577 41.3751 57.685 41.1529 57.9009C40.9308 58.1168 40.8187 58.4054 40.8187 58.7646C40.8187 59.1238 40.9308 59.4041 41.155 59.6221C41.3793 59.8401 41.6699 59.9481 42.0312 59.9481C42.2949 59.9481 42.5108 59.89 42.6748 59.7737C42.8389 59.6574 42.9219 59.5059 42.9219 59.3211V59.2837H42.0167V58.667L42.0146 58.665Z" fill="white"/>
<path d="M44.1509 60.515L45.5835 57.0103H46.5054L47.9588 60.515H47.0431L46.7379 59.7696H45.2783L45.0167 60.515H44.153H44.1509ZM46.549 59.18L46.1275 58.0484C46.115 58.0152 46.1005 57.957 46.0818 57.8761C46.0631 57.7951 46.0424 57.6954 46.0216 57.5771C45.9988 57.6913 45.978 57.793 45.9572 57.8823C45.9365 57.9716 45.9219 58.0318 45.9116 58.0629L45.5046 59.18H46.549Z" fill="white"/>
<path d="M51.3017 60.515H50.3736L49.3832 58.8768V60.515H48.5776V57.0103H49.73C50.1888 57.0103 50.5314 57.0933 50.7598 57.2573C50.9882 57.4234 51.1024 57.6705 51.1024 58.0027C51.1024 58.2436 51.0235 58.4491 50.8678 58.6214C50.712 58.7917 50.5106 58.8913 50.2636 58.9204L51.3038 60.515H51.3017ZM49.3812 58.5031H49.5016C49.8275 58.5031 50.0435 58.4699 50.1473 58.4034C50.2511 58.337 50.3051 58.2228 50.3051 58.0567C50.3051 57.8906 50.249 57.7619 50.1369 57.6892C50.0248 57.6165 49.813 57.5791 49.5037 57.5791H49.3832V58.501L49.3812 58.5031Z" fill="white"/>
<path d="M51.5425 60.515L52.9751 57.0103H53.897L55.3504 60.515H54.4347L54.1295 59.7696H52.6699L52.4083 60.515H51.5446H51.5425ZM53.9406 59.18L53.5191 58.0484C53.5066 58.0152 53.4921 57.957 53.4734 57.8761C53.4547 57.7951 53.434 57.6954 53.4132 57.5771C53.3904 57.6913 53.3696 57.793 53.3488 57.8823C53.3281 57.9716 53.3135 58.0318 53.3032 58.0629L52.8962 59.18H53.9406Z" fill="white"/>
<path d="M55.9692 60.515V57.0103H56.806L58.4732 59.0491C58.521 59.1073 58.575 59.1883 58.631 59.2921C58.6892 59.3959 58.7473 59.5205 58.8096 59.6616C58.7909 59.5578 58.7764 59.454 58.7681 59.3523C58.7597 59.2505 58.7556 59.1218 58.7556 58.9703V57.0103H59.5259V60.515H58.7369L57.024 58.4366C56.9762 58.3785 56.9243 58.2975 56.8662 58.1937C56.8101 58.0899 56.7499 57.9633 56.6856 57.82C56.7042 57.9197 56.7188 58.0214 56.7271 58.1252C56.7354 58.229 56.7395 58.3578 56.7395 58.5135V60.515H55.9692Z" fill="white"/>
<path d="M61.9922 57.6457V60.513H61.1846V57.6457H60.2627V57.0083H62.912V57.6457H61.9901H61.9922Z" fill="white"/>
<path d="M64.839 55.7935L64.0334 56.6759H63.668L64.1746 55.7935H64.839ZM63.6783 60.5149V57.0102H64.4839V60.5149H63.6783Z" fill="white"/>
<path d="M65.1147 60.515L66.5474 57.0103H67.4692L68.9226 60.515H68.007L67.7018 59.7696H66.2422L65.9805 60.515H65.1168H65.1147ZM67.5128 59.18L67.0914 58.0484C67.0789 58.0152 67.0644 57.957 67.0457 57.8761C67.027 57.7951 67.0062 57.6954 66.9855 57.5771C66.9626 57.6913 66.9419 57.793 66.9211 57.8823C66.9003 57.9716 66.8858 58.0318 66.8754 58.0629L66.4685 59.18H67.5128Z" fill="white"/>
<path d="M71.3813 60.515V57.0103H72.407C72.8119 57.0103 73.1316 57.0372 73.3642 57.0892C73.5967 57.1411 73.8023 57.2303 73.9788 57.3528C74.2072 57.5106 74.3795 57.71 74.4978 57.9508C74.6162 58.1917 74.6743 58.4636 74.6743 58.7709C74.6743 59.0782 74.6141 59.3585 74.4937 59.5973C74.3732 59.8381 74.1968 60.0354 73.9663 60.1932C73.794 60.3074 73.603 60.3904 73.3933 60.4402C73.1835 60.4901 72.8763 60.515 72.4714 60.515H71.3813ZM72.1869 59.8817H72.6354C73.0569 59.8817 73.3642 59.7924 73.5573 59.6139C73.7504 59.4353 73.8459 59.1509 73.8459 58.7647C73.8459 58.3785 73.7504 58.0961 73.5573 57.9155C73.3642 57.7349 73.0569 57.6456 72.6354 57.6456H72.1869V59.8817Z" fill="white"/>
<path d="M75.5713 60.515V57.0103H77.7887V57.6414H76.3769V58.3619H77.7887V58.9993H76.3769V59.8776H77.7887V60.515H75.5713Z" fill="white"/>
<path d="M78.7998 60.515V57.0103H79.6054V59.8776H80.8927V60.515H78.7998Z" fill="white"/>
<path d="M83.459 60.515V57.0103H84.4847C84.8895 57.0103 85.2093 57.0372 85.4418 57.0892C85.6744 57.1411 85.8799 57.2303 86.0564 57.3528C86.2848 57.5106 86.4571 57.71 86.5755 57.9508C86.6938 58.1917 86.7519 58.4636 86.7519 58.7709C86.7519 59.0782 86.6917 59.3585 86.5713 59.5973C86.4509 59.8381 86.2744 60.0354 86.0439 60.1932C85.8716 60.3074 85.6806 60.3904 85.4709 60.4402C85.2612 60.4901 84.9539 60.515 84.549 60.515H83.459ZM84.2646 59.8817H84.713C85.1345 59.8817 85.4418 59.7924 85.6349 59.6139C85.828 59.4353 85.9235 59.1509 85.9235 58.7647C85.9235 58.3785 85.828 58.0961 85.6349 57.9155C85.4418 57.7349 85.1345 57.6456 84.713 57.6456H84.2646V59.8817Z" fill="white"/>
<path d="M87.6484 60.515V57.0103H89.8659V57.6414H88.454V58.3619H89.8659V58.9993H88.454V59.8776H89.8659V60.515H87.6484Z" fill="white"/>
<path d="M90.6363 60.0685L91.0848 59.5972C91.1409 59.7259 91.2322 59.8277 91.3568 59.9024C91.4814 59.9772 91.6226 60.0145 91.7783 60.0145C91.9672 60.0145 92.1167 59.973 92.2268 59.89C92.3368 59.8069 92.3908 59.6948 92.3908 59.5557C92.3908 59.3896 92.2081 59.2256 91.8427 59.0595C91.7243 59.0075 91.6309 58.9639 91.5624 58.9307C91.2322 58.7709 91.0038 58.6151 90.8772 58.4636C90.7505 58.312 90.6862 58.1293 90.6862 57.9196C90.6862 57.631 90.8087 57.3943 91.0558 57.2074C91.3028 57.0206 91.6205 56.9292 92.015 56.9292C92.2434 56.9292 92.4406 56.9666 92.6046 57.0413C92.7707 57.1161 92.9161 57.2323 93.0428 57.3901L92.5673 57.8137C92.5112 57.712 92.4365 57.6351 92.343 57.5853C92.2496 57.5355 92.1375 57.5106 92.0046 57.5106C91.8447 57.5106 91.716 57.5479 91.6184 57.6227C91.5208 57.6974 91.471 57.7929 91.471 57.9113C91.471 58.0961 91.6641 58.2663 92.0524 58.4179C92.1292 58.449 92.1894 58.4719 92.2309 58.4906C92.5507 58.6255 92.7853 58.7792 92.9389 58.9494C93.0926 59.1197 93.1694 59.3148 93.1694 59.5328C93.1694 59.8609 93.049 60.1246 92.8081 60.3197C92.5673 60.5149 92.2434 60.6125 91.8364 60.6125C91.5478 60.6125 91.3008 60.5668 91.0952 60.4734C90.8897 60.38 90.736 60.2471 90.6343 60.0727L90.6363 60.0685Z" fill="white"/>
<path d="M93.6035 60.515L95.0361 57.0103H95.958L97.4114 60.515H96.4958L96.1905 59.7696H94.7309L94.4693 60.515H93.6056H93.6035ZM96.0016 59.18L95.5801 58.0484C95.5677 58.0152 95.5531 57.957 95.5344 57.8761C95.5158 57.7951 95.495 57.6954 95.4742 57.5771C95.4514 57.6913 95.4306 57.793 95.4099 57.8823C95.3891 57.9716 95.3746 58.0318 95.3642 58.0629L94.9572 59.18H96.0016Z" fill="white"/>
<path d="M100.754 60.515H99.8263L98.8359 58.8768V60.515H98.0303V57.0103H99.1826C99.6415 57.0103 99.984 57.0933 100.212 57.2573C100.441 57.4234 100.555 57.6705 100.555 58.0027C100.555 58.2436 100.476 58.4491 100.32 58.6214C100.165 58.7917 99.9633 58.8913 99.7162 58.9204L100.756 60.515H100.754ZM98.8338 58.5031H98.9542C99.2802 58.5031 99.4961 58.4699 99.5999 58.4034C99.7037 58.337 99.7577 58.2228 99.7577 58.0567C99.7577 57.8906 99.7017 57.7619 99.5896 57.6892C99.4774 57.6165 99.2657 57.5791 98.9542 57.5791H98.8338V58.501V58.5031Z" fill="white"/>
<path d="M104.167 60.515H103.239L102.249 58.8768V60.515H101.443V57.0103H102.596C103.055 57.0103 103.397 57.0933 103.626 57.2573C103.854 57.4234 103.968 57.6705 103.968 58.0027C103.968 58.2436 103.889 58.4491 103.733 58.6214C103.578 58.7917 103.376 58.8913 103.129 58.9204L104.17 60.515H104.167ZM102.249 58.5031H102.369C102.695 58.5031 102.911 58.4699 103.015 58.4034C103.119 58.337 103.173 58.2228 103.173 58.0567C103.173 57.8906 103.117 57.7619 103.005 57.6892C102.893 57.6165 102.681 57.5791 102.369 57.5791H102.249V58.501V58.5031Z" fill="white"/>
<path d="M108.714 58.7684C108.714 59.0196 108.665 59.2563 108.565 59.4785C108.465 59.7027 108.32 59.8979 108.131 60.0681C107.936 60.2426 107.716 60.3754 107.471 60.4689C107.226 60.5623 106.972 60.608 106.709 60.608C106.478 60.608 106.254 60.5727 106.034 60.5C105.814 60.4273 105.613 60.3235 105.428 60.1886C105.191 60.0142 105.01 59.8024 104.884 59.5595C104.757 59.3145 104.695 59.0529 104.695 58.7726C104.695 58.5213 104.745 58.2846 104.844 58.0625C104.944 57.8424 105.089 57.6451 105.282 57.4728C105.471 57.3026 105.689 57.1697 105.941 57.0762C106.19 56.9828 106.447 56.9351 106.711 56.9351C106.975 56.9351 107.228 56.9828 107.477 57.0762C107.724 57.1697 107.944 57.3026 108.135 57.4728C108.326 57.6451 108.472 57.8424 108.569 58.0645C108.669 58.2867 108.719 58.5234 108.719 58.7726L108.714 58.7684ZM106.709 59.9394C107.049 59.9394 107.332 59.8273 107.554 59.6051C107.776 59.383 107.888 59.1027 107.888 58.7684C107.888 58.4341 107.776 58.158 107.552 57.9317C107.328 57.7054 107.047 57.5912 106.711 57.5912C106.375 57.5912 106.086 57.7033 105.862 57.9296C105.637 58.1559 105.525 58.4341 105.525 58.7684C105.525 59.1027 105.635 59.3871 105.858 59.6072C106.08 59.8273 106.364 59.9394 106.711 59.9394H106.709Z" fill="white"/>
<path d="M109.616 60.515V57.0103H110.421V59.8776H111.709V60.515H109.616Z" fill="white"/>
<path d="M112.435 60.515V57.0103H113.241V59.8776H114.528V60.515H112.435Z" fill="white"/>
<path d="M118.925 58.7684C118.925 59.0196 118.876 59.2563 118.776 59.4785C118.676 59.7027 118.531 59.8979 118.342 60.0681C118.147 60.2426 117.927 60.3754 117.682 60.4689C117.437 60.5623 117.183 60.608 116.92 60.608C116.689 60.608 116.465 60.5727 116.245 60.5C116.025 60.4273 115.823 60.3235 115.639 60.1886C115.402 60.0142 115.221 59.8024 115.095 59.5595C114.968 59.3145 114.906 59.0529 114.906 58.7726C114.906 58.5213 114.956 58.2846 115.055 58.0625C115.155 57.8424 115.3 57.6451 115.493 57.4728C115.682 57.3026 115.9 57.1697 116.152 57.0762C116.401 56.9828 116.658 56.9351 116.922 56.9351C117.186 56.9351 117.439 56.9828 117.688 57.0762C117.935 57.1697 118.155 57.3026 118.346 57.4728C118.537 57.6451 118.682 57.8424 118.78 58.0645C118.88 58.2867 118.93 58.5234 118.93 58.7726L118.925 58.7684ZM116.918 59.9394C117.258 59.9394 117.541 59.8273 117.763 59.6051C117.985 59.383 118.097 59.1027 118.097 58.7684C118.097 58.4341 117.985 58.158 117.761 57.9317C117.536 57.7054 117.256 57.5912 116.92 57.5912C116.583 57.5912 116.295 57.7033 116.071 57.9296C115.846 58.1559 115.734 58.4341 115.734 58.7684C115.734 59.1027 115.844 59.3871 116.066 59.6072C116.289 59.8273 116.573 59.9394 116.92 59.9394H116.918Z" fill="white"/>
<path d="M121.423 60.0685L121.872 59.5972C121.928 59.7259 122.019 59.8277 122.144 59.9024C122.269 59.9772 122.41 60.0145 122.565 60.0145C122.754 60.0145 122.904 59.973 123.014 59.89C123.124 59.8069 123.178 59.6948 123.178 59.5557C123.178 59.3896 122.995 59.2256 122.63 59.0595C122.511 59.0075 122.418 58.9639 122.349 58.9307C122.019 58.7709 121.791 58.6151 121.664 58.4636C121.538 58.312 121.473 58.1293 121.473 57.9196C121.473 57.631 121.596 57.3943 121.843 57.2074C122.09 57.0206 122.408 56.9292 122.802 56.9292C123.03 56.9292 123.228 56.9666 123.392 57.0413C123.558 57.1161 123.703 57.2323 123.83 57.3901L123.354 57.8137C123.298 57.712 123.224 57.6351 123.13 57.5853C123.037 57.5355 122.925 57.5106 122.792 57.5106C122.632 57.5106 122.503 57.5479 122.406 57.6227C122.308 57.6974 122.258 57.7929 122.258 57.9113C122.258 58.0961 122.451 58.2663 122.839 58.4179C122.916 58.449 122.977 58.4719 123.018 58.4906C123.338 58.6255 123.572 58.7792 123.726 58.9494C123.88 59.1197 123.957 59.3148 123.957 59.5328C123.957 59.8609 123.836 60.1246 123.595 60.3197C123.354 60.5149 123.03 60.6125 122.624 60.6125C122.335 60.6125 122.088 60.5668 121.882 60.4734C121.677 60.38 121.523 60.2471 121.421 60.0727L121.423 60.0685Z" fill="white"/>
<path d="M128.694 58.7684C128.694 59.0196 128.645 59.2563 128.545 59.4785C128.445 59.7027 128.3 59.8979 128.111 60.0681C127.916 60.2426 127.696 60.3754 127.451 60.4689C127.206 60.5623 126.952 60.608 126.689 60.608C126.458 60.608 126.234 60.5727 126.014 60.5C125.794 60.4273 125.593 60.3235 125.408 60.1886C125.171 60.0142 124.99 59.8024 124.864 59.5595C124.737 59.3145 124.675 59.0529 124.675 58.7726C124.675 58.5213 124.725 58.2846 124.824 58.0625C124.924 57.8424 125.069 57.6451 125.262 57.4728C125.451 57.3026 125.669 57.1697 125.921 57.0762C126.17 56.9828 126.427 56.9351 126.691 56.9351C126.955 56.9351 127.208 56.9828 127.457 57.0762C127.704 57.1697 127.924 57.3026 128.115 57.4728C128.306 57.6451 128.452 57.8424 128.549 58.0645C128.649 58.2867 128.699 58.5234 128.699 58.7726L128.694 58.7684ZM126.689 59.9394C127.029 59.9394 127.312 59.8273 127.534 59.6051C127.756 59.383 127.868 59.1027 127.868 58.7684C127.868 58.4341 127.756 58.158 127.532 57.9317C127.308 57.7054 127.027 57.5912 126.691 57.5912C126.355 57.5912 126.066 57.7033 125.842 57.9296C125.617 58.1559 125.505 58.4341 125.505 58.7684C125.505 59.1027 125.615 59.3871 125.838 59.6072C126.06 59.8273 126.344 59.9394 126.691 59.9394H126.689Z" fill="white"/>
<path d="M129.355 60.0685L129.803 59.5972C129.859 59.7259 129.951 59.8277 130.075 59.9024C130.2 59.9772 130.341 60.0145 130.497 60.0145C130.685 60.0145 130.835 59.973 130.945 59.89C131.055 59.8069 131.109 59.6948 131.109 59.5557C131.109 59.3896 130.926 59.2256 130.561 59.0595C130.443 59.0075 130.349 58.9639 130.281 58.9307C129.95 58.7709 129.722 58.6151 129.595 58.4636C129.469 58.312 129.404 58.1293 129.404 57.9196C129.404 57.631 129.527 57.3943 129.774 57.2074C130.021 57.0206 130.339 56.9292 130.733 56.9292C130.962 56.9292 131.159 56.9666 131.323 57.0413C131.489 57.1161 131.634 57.2323 131.761 57.3901L131.286 57.8137C131.229 57.712 131.155 57.6351 131.061 57.5853C130.968 57.5355 130.856 57.5106 130.723 57.5106C130.563 57.5106 130.434 57.5479 130.337 57.6227C130.239 57.6974 130.189 57.7929 130.189 57.9113C130.189 58.0961 130.382 58.2663 130.771 58.4179C130.847 58.449 130.908 58.4719 130.949 58.4906C131.269 58.6255 131.504 58.7792 131.657 58.9494C131.811 59.1197 131.888 59.3148 131.888 59.5328C131.888 59.8609 131.767 60.1246 131.526 60.3197C131.286 60.5149 130.962 60.6125 130.555 60.6125C130.266 60.6125 130.019 60.5668 129.813 60.4734C129.608 60.38 129.454 60.2471 129.353 60.0727L129.355 60.0685Z" fill="white"/>
<path d="M134.176 57.6457V60.513H133.368V57.6457H132.446V57.0083H135.096V57.6457H134.174H134.176Z" fill="white"/>
<path d="M135.845 60.515V57.0103H138.063V57.6414H136.651V58.3619H138.063V58.9993H136.651V59.8776H138.063V60.515H135.845Z" fill="white"/>
<path d="M139.076 60.515V57.0103H139.912L141.58 59.0491C141.627 59.1073 141.681 59.1883 141.737 59.2921C141.796 59.3959 141.854 59.5205 141.916 59.6616C141.897 59.5578 141.883 59.454 141.875 59.3523C141.866 59.2505 141.862 59.1218 141.862 58.9703V57.0103H142.632V60.515H141.843L140.13 58.4366C140.083 58.3785 140.031 58.2975 139.973 58.1937C139.917 58.0899 139.856 57.9633 139.792 57.82C139.811 57.9197 139.825 58.0214 139.834 58.1252C139.842 58.229 139.846 58.3578 139.846 58.5135V60.515H139.076Z" fill="white"/>
<path d="M143.708 60.515V57.0103H144.514V60.515H143.708Z" fill="white"/>
<path d="M145.593 60.515V57.0103H146.299C146.665 57.0103 146.932 57.0227 147.101 57.0497C147.269 57.0767 147.416 57.1203 147.539 57.1805C147.684 57.2594 147.798 57.3611 147.877 57.4899C147.956 57.6165 147.998 57.7619 147.998 57.9238C147.998 58.1314 147.931 58.2975 147.8 58.4221C147.667 58.5467 147.47 58.6318 147.209 58.6733C147.512 58.7149 147.742 58.8062 147.898 58.9495C148.054 59.0907 148.13 59.2796 148.13 59.5163C148.13 59.6886 148.087 59.8464 147.998 59.9897C147.908 60.133 147.786 60.243 147.63 60.3219C147.491 60.3925 147.329 60.4423 147.142 60.4735C146.955 60.5046 146.646 60.5191 146.214 60.5191H145.599L145.593 60.515ZM146.399 58.4097H146.579C146.822 58.4097 146.995 58.3785 147.096 58.3142C147.198 58.2498 147.248 58.1439 147.248 57.9923C147.248 57.8408 147.2 57.7411 147.103 57.6788C147.005 57.6165 146.837 57.5854 146.594 57.5854H146.399V58.4097ZM146.399 59.9295H146.714C146.916 59.9295 147.069 59.888 147.175 59.807C147.279 59.7239 147.333 59.6056 147.333 59.4457C147.333 59.2983 147.281 59.1841 147.177 59.1052C147.074 59.0263 146.924 58.9869 146.727 58.9869H146.401V59.9274L146.399 59.9295Z" fill="white"/>
<path d="M148.961 60.515V57.0103H149.767V59.8776H151.054V60.515H148.961Z" fill="white"/>
<path d="M151.783 60.515V57.0103H154V57.6414H152.588V58.3619H154V58.9993H152.588V59.8776H154V60.515H151.783Z" fill="white"/>
</svg>
