<svg width="218" height="108" viewBox="0 0 218 108" fill="none" xmlns="http://www.w3.org/2000/svg">
<path d="M60.834 35.2154V0H75.1717C86.4406 0 94.0371 7.24431 94.0371 17.6077C94.0371 27.9711 86.4406 35.2154 75.1717 35.2154H60.834ZM64.5568 31.9957H74.9704C84.3277 31.9957 90.3646 26.0594 90.3646 17.6077C90.3646 9.156 84.3277 3.21969 74.9704 3.21969H64.5568V31.9957Z" fill="white"/>
<path d="M127.21 35.2154L122.984 25.8078H103.364L99.1386 35.2154H95.2649L111.363 0H115.036L131.134 35.2154H127.21ZM104.723 22.7894H121.626L113.174 3.87369L104.723 22.7894Z" fill="white"/>
<path d="M141.027 35.2154V3.21969H128.651V0H157.125V3.21969H144.75V35.2154H141.027Z" fill="white"/>
<path d="M186.609 35.2154L182.383 25.8078H162.763L158.537 35.2154H154.663L170.762 0H174.434L190.533 35.2154H186.609ZM164.121 22.7894H181.025L172.573 3.87369L164.121 22.7894Z" fill="white"/>
<path d="M80.8084 93.7839C65.7161 93.7839 54.6484 83.6553 54.6484 69.2337C54.6484 54.8122 65.7161 44.6836 80.8084 44.6836C89.998 44.6836 97.2423 48.0374 101.871 54.0744L91.8761 62.9956C89.126 59.5076 85.8392 57.4953 81.6134 57.4953C75.0398 57.4953 70.6127 62.0565 70.6127 69.2337C70.6127 76.411 75.0398 80.9722 81.6134 80.9722C85.8392 80.9722 89.126 78.9599 91.8761 75.4719L101.871 84.3931C97.2423 90.4301 89.998 93.7839 80.8084 93.7839Z" fill="white"/>
<path d="M135.955 45.7568H151.383V92.7107H138.37L120.527 71.3802V92.7107H105.1V45.7568H118.113L135.955 67.0873V45.7568Z" fill="white"/>
<path d="M173.23 80.771H196.707V92.7107H157.669V45.7568H195.835V57.6965H173.23V63.1968H193.085V74.5999H173.23V80.771Z" fill="white"/>
<path d="M216.625 93.6048L208.389 87.0536C207.874 86.6452 207.139 86.7394 206.748 87.2421C206.342 87.7449 206.436 88.499 206.936 88.8917L214.953 95.2701H12.5174V64.5574C12.5174 64.5574 12.5174 64.5574 12.533 64.5574C12.8143 64.5574 13.1113 64.4474 13.33 64.2432L29.1135 49.3028L32.5203 52.6648C32.7547 52.8848 33.0516 52.9947 33.3485 52.9947C33.6454 52.9947 33.958 52.869 34.1924 52.6491C34.6456 52.1778 34.6456 51.4394 34.1924 50.9838L30.8638 47.7004L33.0672 45.6266C33.8486 46.1294 34.7706 46.4436 35.7551 46.4436C38.4586 46.4436 40.6621 44.2598 40.709 41.542L56.2893 38.0072C57.1488 39.4682 58.7272 40.4737 60.5399 40.4737C63.2747 40.4737 65.4938 38.2428 65.4938 35.4936C65.4938 34.6923 65.2906 33.9382 64.9468 33.2627L75.714 22.8154C76.4797 23.3024 77.3861 23.6009 78.355 23.6009C81.0897 23.6009 83.3088 21.3701 83.3088 18.6208C83.3088 15.8715 81.0897 13.6407 78.355 13.6407C75.6202 13.6407 73.4011 15.8715 73.4011 18.6208C73.4011 19.532 73.6668 20.3803 74.0887 21.1187L63.4153 31.456C62.6027 30.859 61.6026 30.4977 60.5243 30.4977C57.7895 30.4977 55.5705 32.7286 55.5705 35.4778C55.5705 35.5721 55.5861 35.6506 55.6017 35.7449L40.1776 39.2483C39.365 37.6144 37.6929 36.4676 35.7551 36.4676C33.0204 36.4676 30.8013 38.6984 30.8013 41.4477C30.8013 42.3432 31.0513 43.1758 31.4733 43.8985L12.5643 61.8081V47.6847L14.002 47.1191C14.5958 46.8834 14.8928 46.1922 14.6584 45.5952C14.4239 44.9825 13.7363 44.6997 13.1425 44.9354L12.5643 45.171V9.43798L18.9402 17.5287C19.1746 17.8272 19.5184 17.9686 19.8622 17.9686C20.1123 17.9686 20.3779 17.8901 20.5811 17.7173C21.0811 17.3088 21.1749 16.5704 20.7686 16.0677L14.252 7.78841C13.5644 6.92435 12.5174 6.48446 11.4548 6.46875C11.4391 6.46875 11.4235 6.46875 11.3923 6.46875C11.361 6.46875 11.3454 6.46875 11.3141 6.46875C10.2671 6.48446 9.22007 6.92435 8.5481 7.78841L2.03154 16.0677C1.62523 16.5704 1.719 17.3245 2.21907 17.7173C2.73477 18.1257 3.46925 18.0315 3.85993 17.5287L10.2046 9.4694V46.8363V95.2858H1.17204C0.531326 95.2858 0 95.8199 0 96.464C0 97.1081 0.531326 97.6423 1.17204 97.6423H10.1733V105.906C10.1733 106.55 10.7047 107.084 11.3454 107.084C11.9861 107.084 12.5174 106.55 12.5174 105.906V97.6423H214.984L206.936 104.052C206.436 104.461 206.342 105.199 206.748 105.702C206.983 106 207.327 106.142 207.67 106.142C207.92 106.142 208.186 106.063 208.389 105.89L216.625 99.339C217.5 98.6478 218 97.5952 218 96.4797C218 95.3643 217.5 94.3117 216.625 93.6205V93.6048ZM20.8467 41.8405L23.0346 40.9764C23.4721 40.8036 23.9566 40.9136 24.2847 41.2278L25.9568 42.8773C26.4257 43.3329 26.4257 44.087 25.9568 44.5426C25.7224 44.7783 25.4255 44.8882 25.113 44.8882C24.8004 44.8882 24.5191 44.7783 24.2847 44.5583L23.1596 43.4429L21.6906 44.0242C21.0811 44.2598 20.4092 43.9613 20.1748 43.3644C19.9404 42.7517 20.2373 42.0761 20.8311 41.8405H20.8467ZM53.7108 59.3573C54.3515 59.4516 54.7891 60.0643 54.6797 60.7084C54.5859 61.2897 54.0859 61.6982 53.5233 61.6982C53.4608 61.6982 53.3983 61.6982 53.3358 61.6982L48.4601 60.9284C47.8194 60.8341 47.3818 60.2214 47.4912 59.5773C47.6006 58.9332 48.1944 58.4933 48.8351 58.6033L53.7108 59.3731V59.3573ZM42.3498 57.5507C42.9905 57.6449 43.4281 58.2576 43.3187 58.9017C43.2249 59.483 42.7249 59.8915 42.1623 59.8915C42.0998 59.8915 42.0373 59.8915 41.9748 59.8915L39.7869 59.5459C39.5525 59.5144 39.3181 59.3888 39.1462 59.216L37.2085 57.2993C36.7396 56.8437 36.7396 56.1053 37.2085 55.634C37.6616 55.1627 38.3961 55.1627 38.8649 55.634L40.5371 57.2836L42.3498 57.5664V57.5507ZM65.1031 59.7344C65.5094 60.2528 65.4156 60.9912 64.8999 61.384L63.0559 62.845C62.8528 63.0021 62.5871 63.0964 62.3371 63.0964C62.2746 63.0964 62.212 63.0964 62.1495 63.0964L59.8367 62.735C59.196 62.6408 58.7584 62.0281 58.8678 61.384C58.9772 60.7398 59.571 60.3 60.2118 60.4099L62.0245 60.6927L63.4622 59.5616C63.9623 59.1531 64.7124 59.2474 65.1031 59.7658V59.7344ZM74.8232 52.0521C75.2295 52.5705 75.1358 53.3089 74.6201 53.7017L70.4476 56.9851C70.2288 57.1579 69.9788 57.2365 69.7287 57.2365C69.3849 57.2365 69.0411 57.0794 68.8067 56.7809C68.4004 56.2624 68.4942 55.5241 69.0099 55.1313L73.1824 51.8479C73.6824 51.4394 74.4325 51.5337 74.8232 52.0521Z" fill="white"/>
</svg>
